<svg width="80" height="80" viewBox="0 0 80 80" fill="none" xmlns="http://www.w3.org/2000/svg">
<path d="M28.148 37.3334H32.5924V41.9048H34.0739V28.1905V26.6667H28.148V28.1905H32.5924V35.8095H28.148V28.1905H26.6665V41.9048H28.148V37.3334Z" fill="#DAC5A7"/>
<path d="M38.5186 37.3334H44.4445V28.1905H42.963V35.8095H38.5186V28.1905H42.963V26.6667H37.0371V41.9048H38.5186V37.3334Z" fill="#DAC5A7"/>
<path d="M51.8517 40.381H50.3702V28.1905H51.8517V26.6667H47.4072V28.1905H48.8887V40.381H47.4072V41.9048H51.8517V40.381Z" fill="#DAC5A7"/>
<path d="M20.7408 5.98705V11.7943L28.1482 17.8895V22.0952H22.2223V26.6667H15.166L11.209 21.6823C11.606 21.1642 11.852 20.5196 11.852 19.8095C11.852 18.1272 10.5245 16.7619 8.88899 16.7619C7.25343 16.7619 5.92603 18.1272 5.92603 19.8095C5.92603 21.4918 7.25343 22.8571 8.88899 22.8571C9.2964 22.8571 9.68603 22.7718 10.0386 22.6179L14.4638 28.1905H22.2223V31.2381H13.0268L10.3853 33.9551C9.9438 33.6869 9.43714 33.5238 8.88899 33.5238C7.25343 33.5238 5.92603 34.8891 5.92603 36.5714C5.92603 38.2537 7.25343 39.619 8.88899 39.619C10.5245 39.619 11.852 38.2537 11.852 36.5714C11.852 36.0076 11.6934 35.4865 11.4327 35.0324L13.6401 32.7619H22.2223V40.381H13.0268L10.3853 43.0979C9.9438 42.8297 9.43714 42.6667 8.88899 42.6667C7.25343 42.6667 5.92603 44.032 5.92603 45.7143C5.92603 47.3966 7.25343 48.7619 8.88899 48.7619C10.5245 48.7619 11.852 47.3966 11.852 45.7143C11.852 45.1505 11.6934 44.6293 11.4327 44.1752L13.6401 41.9048H22.2223V46.4762H28.1482V48C26.8727 48.3398 25.926 49.5223 25.926 50.9394C25.926 52.6217 27.2534 53.987 28.889 53.987C30.5245 53.987 31.8519 52.6217 31.8519 50.9394C31.8519 49.5223 30.9053 48.3398 29.6297 48V46.4762H35.5557V48C34.2801 48.3398 33.3334 49.5223 33.3334 50.9394C33.3334 52.6217 34.6608 53.987 36.2964 53.987C37.9319 53.987 39.2594 52.6217 39.2594 50.9394C39.2594 49.5223 38.3127 48.3398 37.0371 48V46.4762H42.9631V48C41.6875 48.3398 40.7408 49.5223 40.7408 50.9394C40.7408 52.6217 42.0682 53.987 43.7038 53.987C45.3394 53.987 46.6668 52.6217 46.6668 50.9394C46.6668 49.5223 45.7201 48.3398 44.4445 48V46.4762H50.3705V48C49.0949 48.3398 48.1482 49.5223 48.1482 50.9394C48.1482 52.6217 49.4757 53.987 51.1112 53.987C52.7468 53.987 54.0742 52.6217 54.0742 50.9394C54.0742 49.5223 53.1275 48.3398 51.852 48V46.4762H57.7779V41.9048H66.3601L68.5675 44.1752C68.3068 44.6293 68.1482 45.1505 68.1482 45.7143C68.1482 47.3966 69.4757 48.7619 71.1112 48.7619C72.7468 48.7619 74.0742 47.3966 74.0742 45.7143C74.0742 44.032 72.7468 42.6667 71.1112 42.6667C70.5631 42.6667 70.0564 42.8297 69.6149 43.0979L66.9734 40.381H57.7779V37.3333H66.9675L69.2149 35.0842C69.729 35.5307 70.3853 35.8095 71.1112 35.8095C72.7468 35.8095 74.0742 34.4442 74.0742 32.7619C74.0742 31.0796 72.7468 29.7143 71.1112 29.7143C69.4757 29.7143 68.1482 31.0796 68.1482 32.7619C68.1482 33.1383 68.2238 33.4949 68.3453 33.8286L66.366 35.8095H57.7779V28.1905H65.5364L69.9601 22.6179C70.3142 22.7718 70.7038 22.8571 71.1112 22.8571C72.7468 22.8571 74.0742 21.4918 74.0742 19.8095C74.0742 18.1272 72.7468 16.7619 71.1112 16.7619C69.4757 16.7619 68.1482 18.1272 68.1482 19.8095C68.1482 20.5196 68.3942 21.1642 68.7912 21.6823L64.8342 26.6667H57.7779V22.0952H51.852V17.8895L59.2594 11.7943V5.98705C60.5349 5.64724 61.4816 4.46476 61.4816 3.04762C61.4816 1.36533 60.1542 0 58.5186 0C56.8831 0 55.5557 1.36533 55.5557 3.04762C55.5557 4.46476 56.5023 5.64724 57.7779 5.98705V11.0629L50.3705 17.1581V22.0952H44.4445V14.848L51.852 8.87924V5.98705C53.1275 5.64724 54.0742 4.46476 54.0742 3.04762C54.0742 1.36533 52.7468 0 51.1112 0C49.4757 0 48.1482 1.36533 48.1482 3.04762C48.1482 4.46476 49.0949 5.64724 50.3705 5.98705V8.13714L42.9631 14.1059V22.0952H37.0371V14.1044L29.6297 8.13714V5.98705C30.9053 5.64724 31.8519 4.46476 31.8519 3.04762C31.8519 1.36533 30.5245 0 28.889 0C27.2534 0 25.926 1.36533 25.926 3.04762C25.926 4.46476 26.8727 5.64724 28.1482 5.98705V8.87924L35.5557 14.848V22.0952H29.6297V17.1581L22.2223 11.0629V5.98705C23.4979 5.64724 24.4445 4.46476 24.4445 3.04762C24.4445 1.36533 23.1171 0 21.4816 0C19.846 0 18.5186 1.36533 18.5186 3.04762C18.5186 4.46476 19.4653 5.64724 20.7408 5.98705ZM8.88899 21.3333C8.07121 21.3333 7.40751 20.6507 7.40751 19.8095C7.40751 18.9684 8.07121 18.2857 8.88899 18.2857C9.70677 18.2857 10.3705 18.9684 10.3705 19.8095C10.3705 20.6507 9.70677 21.3333 8.88899 21.3333ZM8.88899 38.0952C8.07121 38.0952 7.40751 37.4126 7.40751 36.5714C7.40751 35.7303 8.07121 35.0476 8.88899 35.0476C9.70677 35.0476 10.3705 35.7303 10.3705 36.5714C10.3705 37.4126 9.70677 38.0952 8.88899 38.0952ZM8.88899 47.2381C8.07121 47.2381 7.40751 46.5554 7.40751 45.7143C7.40751 44.8731 8.07121 44.1905 8.88899 44.1905C9.70677 44.1905 10.3705 44.8731 10.3705 45.7143C10.3705 46.5554 9.70677 47.2381 8.88899 47.2381ZM71.1112 44.1905C71.929 44.1905 72.5927 44.8731 72.5927 45.7143C72.5927 46.5554 71.929 47.2381 71.1112 47.2381C70.2934 47.2381 69.6297 46.5554 69.6297 45.7143C69.6297 44.8731 70.2934 44.1905 71.1112 44.1905ZM71.1112 31.2381C71.929 31.2381 72.5927 31.9208 72.5927 32.7619C72.5927 33.603 71.929 34.2857 71.1112 34.2857C70.2934 34.2857 69.6297 33.603 69.6297 32.7619C69.6297 31.9208 70.2934 31.2381 71.1112 31.2381ZM71.1112 18.2857C71.929 18.2857 72.5927 18.9684 72.5927 19.8095C72.5927 20.6507 71.929 21.3333 71.1112 21.3333C70.2934 21.3333 69.6297 20.6507 69.6297 19.8095C69.6297 18.9684 70.2934 18.2857 71.1112 18.2857ZM57.0371 3.04762C57.0371 2.20648 57.7008 1.52381 58.5186 1.52381C59.3364 1.52381 60.0001 2.20648 60.0001 3.04762C60.0001 3.88876 59.3364 4.57143 58.5186 4.57143C57.7008 4.57143 57.0371 3.88876 57.0371 3.04762ZM49.6297 3.04762C49.6297 2.20648 50.2934 1.52381 51.1112 1.52381C51.929 1.52381 52.5927 2.20648 52.5927 3.04762C52.5927 3.88876 51.929 4.57143 51.1112 4.57143C50.2934 4.57143 49.6297 3.88876 49.6297 3.04762ZM27.4075 3.04762C27.4075 2.20648 28.0712 1.52381 28.889 1.52381C29.7068 1.52381 30.3705 2.20648 30.3705 3.04762C30.3705 3.88876 29.7068 4.57143 28.889 4.57143C28.0712 4.57143 27.4075 3.88876 27.4075 3.04762ZM30.3705 50.9394C30.3705 51.7806 29.7068 52.4632 28.889 52.4632C28.0712 52.4632 27.4075 51.7806 27.4075 50.9394C27.4075 50.0983 28.0712 49.4156 28.889 49.4156C29.7068 49.4156 30.3705 50.0983 30.3705 50.9394ZM37.7779 50.9394C37.7779 51.7806 37.1142 52.4632 36.2964 52.4632C35.4786 52.4632 34.8149 51.7806 34.8149 50.9394C34.8149 50.0983 35.4786 49.4156 36.2964 49.4156C37.1142 49.4156 37.7779 50.0983 37.7779 50.9394ZM45.1853 50.9394C45.1853 51.7806 44.5216 52.4632 43.7038 52.4632C42.886 52.4632 42.2223 51.7806 42.2223 50.9394C42.2223 50.0983 42.886 49.4156 43.7038 49.4156C44.5216 49.4156 45.1853 50.0983 45.1853 50.9394ZM52.5927 50.9394C52.5927 51.7806 51.929 52.4632 51.1112 52.4632C50.2934 52.4632 49.6297 51.7806 49.6297 50.9394C49.6297 50.0983 50.2934 49.4156 51.1112 49.4156C51.929 49.4156 52.5927 50.0983 52.5927 50.9394ZM56.2964 23.619V26.6667V28.1905V35.8095V37.3333V40.381V41.9048V44.9524H23.7038V41.9048V40.381V32.7619V31.2381V28.1905V26.6667V23.619H56.2964ZM21.4816 1.52381C22.2994 1.52381 22.9631 2.20648 22.9631 3.04762C22.9631 3.88876 22.2994 4.57143 21.4816 4.57143C20.6638 4.57143 20.0001 3.88876 20.0001 3.04762C20.0001 2.20648 20.6638 1.52381 21.4816 1.52381Z" fill="#DAC5A7"/>
<path d="M77.037 8.38098H60.7407V9.90479H77.037C77.8533 9.90479 78.5185 10.589 78.5185 11.4286V60.1905H1.48148V11.4286C1.48148 10.589 2.14667 9.90479 2.96296 9.90479H19.2593V8.38098H2.96296C1.33333 8.38098 0 9.75241 0 11.4286V60.1905V60.6294V64.7619C0 66.4381 1.33333 67.8096 2.96296 67.8096H30.6874L28.5704 75.4286H23.7037C22.0681 75.4286 20.7407 76.7939 20.7407 78.4762V80H59.2593V78.4762C59.2593 76.7939 57.9319 75.4286 56.2963 75.4286H51.4281L49.3111 67.8096H77.037C78.6667 67.8096 80 66.4381 80 64.7619V61.4477V60.1905V11.4286C80 9.75241 78.6667 8.38098 77.037 8.38098ZM51.8518 76.9524H56.2963C57.1126 76.9524 57.7778 77.6366 57.7778 78.4762H22.2222C22.2222 77.6366 22.8874 76.9524 23.7037 76.9524H28.1481H51.8518ZM49.8874 75.4286H30.1126L32.2296 67.8096H47.7718L49.8874 75.4286ZM78.5185 64.7619C78.5185 65.6016 77.8533 66.2857 77.037 66.2857H48.8889H31.1111H2.96296C2.14667 66.2857 1.48148 65.6016 1.48148 64.7619V61.7143H78.5185V64.7619Z" fill="#DAC5A7"/>
<path d="M23.7036 8.38098V9.90479H27.0177L26.6666 9.62136V8.38098H23.7036Z" fill="#DAC5A7"/>
<path d="M45.7735 9.90479L47.6653 8.38098H32.335L34.2268 9.90479H45.7735Z" fill="#DAC5A7"/>
<path d="M56.2963 8.38098H53.3333V9.62136L52.9822 9.90479H56.2963V8.38098Z" fill="#DAC5A7"/>
<path d="M41.9913 12.9524L43.8831 11.4286H36.1172L38.009 12.9524H41.9913Z" fill="#DAC5A7"/>
<path d="M2.96289 11.4286V57.1429H77.037V11.4286H60.7407V12.5273L60.2236 12.9524H75.5555V55.6191H4.44437V12.9524H19.7762L19.2592 12.5273V11.4286H2.96289Z" fill="#DAC5A7"/>
<path d="M30.8015 12.9524L28.9097 11.4286H25.0386L26.8904 12.9524H30.8015Z" fill="#DAC5A7"/>
<path d="M49.1985 12.9524H53.1096L54.9614 11.4286H51.0903L49.1985 12.9524Z" fill="#DAC5A7"/>
</svg>
