<svg width="80" height="80" viewBox="0 0 80 80" fill="none" xmlns="http://www.w3.org/2000/svg">
<path d="M8.73419 3.65385C19.8448 3.64969 30.9555 3.64553 42.0661 3.64137C47.6215 3.63929 53.1768 3.63373 58.7321 3.63513C62.8758 3.63618 72.7349 2.09992 75.4406 6.41037C77.1114 9.07196 75.5483 18.7416 75.5769 22.0248C75.6269 27.7502 75.6769 33.4755 75.7268 39.2008C75.7768 44.9261 75.8268 50.6514 75.8768 56.3767C75.8995 58.9791 75.9222 61.5815 75.9449 64.1839C75.9863 68.9324 76.6333 70.2043 73.2309 73.6988C70.0106 77.0064 68.6801 76.4584 64.5429 76.4107C61.5526 76.3763 58.5623 76.3419 55.572 76.3074C50.5882 76.2501 45.6043 76.1927 40.6205 76.1353C35.1383 76.0722 29.656 76.009 24.1738 75.9459C21.6819 75.9172 19.19 75.8885 16.698 75.8598C15.2868 75.8436 8.89983 76.5028 7.72714 75.7565C2.64121 72.52 3.73016 63.7447 3.70177 58.5831C3.66781 52.4069 3.70751 46.2292 3.71166 40.0528C3.71534 34.5739 0.513071 3.44366 9.47277 3.95531C11.7027 4.08265 11.6957 0.523608 9.47277 0.396663C2.99718 0.0268688 0.573729 4.72275 0.283897 10.7706C-0.331093 23.6035 0.245926 36.6159 0.237289 49.4658C0.23334 55.3419 0.124268 61.2347 0.387892 67.1066C0.523876 70.1356 0.136094 75.1075 2.44385 77.5593C4.2112 79.437 6.91169 79.2535 9.22229 79.3324C15.6925 79.5534 22.1857 79.4817 28.6593 79.5562C41.1189 79.6997 53.5785 79.8431 66.0381 79.9866C72.9672 80.0664 78.1802 80.0505 79.2837 71.9488C80.9176 59.9527 79.2597 46.6321 79.154 34.5164C79.0995 28.2706 79.045 22.0248 78.9904 15.7791C78.9587 12.1471 80.1017 6.53941 78.2306 3.23436C76.9774 1.0208 74.9463 0.844769 72.6132 0.549752C66.0371 -0.281786 59.2825 0.0762826 52.6717 0.078758C38.0259 0.084241 23.38 0.0897251 8.73419 0.0952093C6.50271 0.0960448 6.49894 3.65469 8.73419 3.65385Z" fill="#DAC5A7"/>
<path d="M2.18382 23.0219C26.7812 23.0219 51.3787 23.0219 75.9761 23.0219C78.2076 23.0219 78.2113 19.4633 75.9761 19.4633C51.3787 19.4633 26.7812 19.4633 2.18382 19.4633C-0.0477048 19.4633 -0.0514009 23.0219 2.18382 23.0219Z" fill="#DAC5A7"/>
<path d="M51.8924 43.89C53.5866 45.0099 55.2809 46.1298 56.9751 47.2497C58.49 48.251 61.7113 49.6935 62.2108 51.5861C62.4764 50.9163 62.7421 50.2465 63.0077 49.5767C60.9851 50.9545 58.8263 52.2284 56.939 53.7992C54.7897 55.5881 53.1923 57.1106 50.413 57.8415C48.2525 58.4096 49.1682 61.8428 51.335 61.273C53.6999 60.6511 55.7867 59.5848 57.6428 57.9426C59.8841 55.9595 62.2863 54.3333 64.7581 52.6495C65.4053 52.2086 65.7642 51.4329 65.555 50.6401C64.9408 48.313 63.3573 47.2602 61.4701 45.991C58.8746 44.2455 56.2516 42.5416 53.6427 40.8172C51.7609 39.5734 50.0202 42.6525 51.8924 43.89Z" fill="#DAC5A7"/>
<path d="M48.0572 35.4706C41.6558 43.6143 37.4274 53.559 32.6412 62.7433C31.589 64.7623 34.5818 66.5619 35.6358 64.5394C40.2478 55.6894 44.3382 45.8379 50.5095 37.987C51.8981 36.2203 49.4592 33.6871 48.0572 35.4706Z" fill="#DAC5A7"/>
<path d="M26.9858 41.0492C25.4464 43.7632 23.9341 45.8054 21.4247 47.6482C20.2385 48.5193 18.7505 49.471 18.4638 51.07C18.209 52.4903 18.9126 53.3302 19.941 54.1064C22.3855 55.9514 25.0487 57.4022 27.4353 59.3719C29.1585 60.7941 31.6275 58.2916 29.8876 56.8556C28.3955 55.6241 26.8761 54.4319 25.2892 53.3309C24.5676 52.8303 23.7294 52.4249 23.0587 51.8651C22.7537 51.5413 22.3957 51.4748 21.9845 51.6655C22.4881 51.2157 23.0215 50.8089 23.5848 50.445C26.4293 48.3673 28.2256 45.939 29.9804 42.8453C31.1052 40.862 28.1092 39.0685 26.9858 41.0492Z" fill="#DAC5A7"/>
<path d="M8.85168 12.8198C8.82947 12.7501 8.80725 12.6804 8.78504 12.6107C8.93368 12.0337 9.08233 11.4566 9.23098 10.8796C9.48868 10.7999 9.74638 10.7203 10.0041 10.6406C10.2591 10.7932 10.5142 10.9457 10.7693 11.0982C10.8025 11.1928 10.8358 11.2874 10.8691 11.382C10.5701 10.4717 9.67545 9.87435 8.73603 10.1393C7.87037 10.3834 7.22454 11.4134 7.52492 12.328C8.12983 14.1699 10.3061 14.896 11.6833 13.3959C12.0909 12.9519 12.3303 12.2688 12.1292 11.6647C11.9511 11.1297 11.7253 10.6763 11.304 10.3035C10.5951 9.67627 9.54828 9.58867 8.85168 10.3035C8.22639 10.9451 8.13938 12.1895 8.85168 12.8198Z" fill="#DAC5A7"/>
<path d="M15.7673 11.6542C15.8001 12.3592 16.0144 12.8712 16.4688 13.4071C17.0453 14.0869 18.3505 14.11 18.9211 13.4071C19.0926 13.1957 19.2655 12.9872 19.3896 12.7428C19.709 12.1133 19.734 11.0771 19.1184 10.5866C17.9749 9.67524 16.8319 9.67526 15.6885 10.5866C14.9482 11.1766 15.0845 12.4831 15.6885 13.1029C16.4192 13.8527 17.3986 13.6945 18.1408 13.1029C18.1881 13.0652 18.2355 13.0274 18.2828 12.9897C18.0278 13.1422 17.7727 13.2947 17.5177 13.4473C17.4415 13.4112 17.3654 13.4112 17.2892 13.4473C17.0342 13.2947 16.7791 13.1422 16.5241 12.9897C16.5714 13.0274 16.6188 13.0652 16.6662 13.1029C16.5758 12.3842 16.4854 11.6654 16.395 10.9467C16.4196 10.928 16.4442 10.9094 16.4688 10.8908C17.2862 10.8908 18.1037 10.8908 18.9211 10.8908C18.8818 10.8444 18.8424 10.798 18.8031 10.7516C18.9517 11.0134 19.1004 11.2751 19.249 11.5368C19.2445 11.5759 19.2399 11.6151 19.2353 11.6542C19.1907 10.6941 18.4703 9.87488 17.5013 9.87488C16.5968 9.87488 15.7225 10.6896 15.7673 11.6542Z" fill="#DAC5A7"/>
<path d="M23.8242 10.9587C23.7857 11.021 23.7472 11.0833 23.7087 11.1456C23.9161 10.9328 24.1234 10.7201 24.3308 10.5073C24.267 10.5414 24.2032 10.5754 24.1394 10.6095C24.7229 10.6095 25.3064 10.6095 25.8898 10.6095C25.7615 10.5114 25.6333 10.4134 25.505 10.3154C25.622 11.2469 25.7389 12.1784 25.8559 13.11C25.9172 13.0434 25.9785 12.9768 26.0397 12.9102C25.053 12.4908 24.0663 12.0715 23.0796 11.6521C23.2599 13.9064 25.5537 14.544 27.1092 13.1215C28.0266 12.2825 27.5889 10.9695 26.7582 10.3269C26.7016 10.2831 26.6449 10.2393 26.5882 10.1954C26.7956 10.4082 27.003 10.621 27.2103 10.8338C27.1989 10.85 27.1876 10.8663 27.1762 10.8826C26.827 9.99167 26.0196 9.36453 25.0431 9.63988C24.2187 9.87237 23.4805 10.9319 23.832 11.8287C24.1057 12.527 24.4144 12.9407 25.0078 13.3997C24.8909 12.4682 24.7739 11.5366 24.6569 10.6051C24.6391 10.6051 24.6212 10.6052 24.6034 10.6052C24.8951 10.5242 25.1868 10.4432 25.4786 10.3622C25.4939 10.3725 25.5093 10.3829 25.5247 10.3932C25.7798 10.5457 26.0348 10.6982 26.2899 10.8508C26.3017 10.8789 26.3135 10.907 26.3254 10.9352C26.4043 11.2345 26.4832 11.5339 26.5621 11.8332C26.5573 11.7728 26.5524 11.7124 26.5476 11.6521C26.4316 10.2019 24.6906 9.19518 23.5874 10.3939C23.5262 10.4605 23.4649 10.527 23.4036 10.5936C22.5707 11.4987 22.8526 12.699 23.7546 13.3882C23.8829 13.4862 24.0112 13.5842 24.1394 13.6823C24.6389 14.0639 25.3804 13.9543 25.8898 13.6823C26.3095 13.4582 26.5682 13.1605 26.8187 12.7548C28.017 10.8147 25.017 9.02735 23.8242 10.9587Z" fill="#DAC5A7"/>
</svg>
