<svg width="55" height="65" viewBox="0 0 55 65" fill="none" xmlns="http://www.w3.org/2000/svg">
<path d="M50.9432 54.5823H4.05678C1.8198 54.5823 0 52.5571 0 50.0678V46.1177C0 45.7581 0.262011 45.4666 0.585106 45.4666H54.4149C54.7381 45.4666 55 45.7581 55 46.1177V50.0678C55 52.5571 53.1801 54.5823 50.9432 54.5823ZM1.17021 46.7688V50.0678C1.17021 51.8391 2.46505 53.28 4.05678 53.28H50.9433C52.5351 53.28 53.8299 51.8391 53.8299 50.0678V46.7688H1.17021Z" fill="#DAC5A7"/>
<path d="M54.4149 46.7688H0.585106C0.262011 46.7688 0 46.4774 0 46.1177V17.0127C0 14.0328 2.17859 11.6085 4.85638 11.6085H25.2183C25.5414 11.6085 25.8034 11.9 25.8034 12.2596C25.8034 12.6191 25.5414 12.9107 25.2183 12.9107H4.85638C2.82384 12.9107 1.17021 14.7509 1.17021 17.0127V45.4666H53.8298V17.0127C53.8298 14.7509 52.1762 12.9107 50.1436 12.9107H36.8028C36.4796 12.9107 36.2177 12.6191 36.2177 12.2596C36.2177 11.9 36.4796 11.6085 36.8028 11.6085H50.1436C52.8214 11.6085 55 14.0328 55 17.0127V46.1177C55 46.4774 54.7381 46.7688 54.4149 46.7688Z" fill="#DAC5A7"/>
<path d="M18.3148 27.0389C18.1618 27.0389 18.0124 26.9721 17.901 26.8482C17.7487 26.6788 17.6924 26.4302 17.7543 26.2008L20.2367 16.9926C20.2646 16.8894 20.3149 16.7955 20.3833 16.7193L34.0366 1.5257C34.9207 0.541861 36.0961 0 37.3463 0C38.5966 0 39.772 0.541861 40.6561 1.5257C41.5403 2.50954 42.0272 3.81764 42.0272 5.20895C42.0272 6.60039 41.5403 7.90836 40.6561 8.89233L27.0031 24.0858C26.9347 24.162 26.8503 24.2181 26.7575 24.249L18.4829 27.0114C18.4276 27.03 18.3709 27.0389 18.3148 27.0389ZM21.3151 17.524L19.1874 25.4167L26.2799 23.0488L39.8288 7.97139C40.4918 7.23341 40.857 6.25244 40.857 5.20895C40.857 4.16547 40.4918 3.18436 39.8288 2.44651C39.1657 1.70854 38.2841 1.30224 37.3463 1.30224C36.4086 1.30224 35.5269 1.70867 34.8639 2.44651L21.3151 17.524Z" fill="#DAC5A7"/>
<path d="M22.8658 21.029C22.1915 21.029 21.5174 20.7434 21.004 20.1723C19.9775 19.0298 19.9775 17.171 21.004 16.0285C21.2324 15.7743 21.6029 15.7743 21.8315 16.0285C22.06 16.2829 22.06 16.695 21.8315 16.9493C21.2611 17.5841 21.2611 18.6167 21.8315 19.2514C22.4018 19.8862 23.3298 19.8862 23.9002 19.2514C24.1288 18.9972 24.4992 18.9974 24.7276 19.2514C24.9562 19.5058 24.9562 19.9181 24.7276 20.1723C24.2144 20.7434 23.5401 21.029 22.8658 21.029Z" fill="#DAC5A7"/>
<path d="M25.762 24.2534C25.0587 24.2534 24.3975 23.9485 23.9002 23.3952C23.4029 22.8419 23.129 22.106 23.129 21.3233C23.129 20.5407 23.403 19.8048 23.9002 19.2515L31.1822 11.148C31.4105 10.8938 31.7812 10.8938 32.0095 11.148C32.2381 11.4024 32.2381 11.8147 32.0095 12.0689L24.7277 20.1723C24.4514 20.4798 24.2991 20.8885 24.2991 21.3233C24.2991 21.758 24.4513 22.1669 24.7277 22.4743C25.0039 22.7817 25.3713 22.9511 25.7619 22.9511C26.1526 22.9511 26.52 22.7819 26.7962 22.4743C27.0247 22.2201 27.3953 22.2201 27.6237 22.4743C27.8522 22.7286 27.8522 23.1407 27.6238 23.3951C27.1266 23.9485 26.4653 24.2534 25.762 24.2534Z" fill="#DAC5A7"/>
<path d="M38.5877 10.9246C38.4381 10.9246 38.2881 10.861 38.1741 10.7339L32.3817 4.2881C32.1532 4.03377 32.1532 3.62148 32.3817 3.36728C32.61 3.11309 32.9808 3.11309 33.2091 3.36728L39.0014 9.8131C39.2299 10.0674 39.2299 10.4797 39.0014 10.7339C38.8873 10.861 38.7374 10.9246 38.5877 10.9246Z" fill="#DAC5A7"/>
<path d="M40.3725 40.2576H31.0107C29.075 40.2576 27.5001 38.505 27.5001 36.3508C27.5001 34.1967 29.075 32.4441 31.0107 32.4441H43.8831C45.1736 32.4441 46.2235 31.2758 46.2235 29.8397V29.6433C46.2235 28.2072 45.1736 27.0388 43.8831 27.0388H18.3148C17.9917 27.0388 17.7297 26.7472 17.7297 26.3877C17.7297 26.0281 17.9917 25.7366 18.3148 25.7366H43.8831C45.8189 25.7366 47.3938 27.4891 47.3938 29.6433V29.8397C47.3938 31.9938 45.8189 33.7464 43.8831 33.7464H31.0107C29.7202 33.7464 28.6703 34.9147 28.6703 36.3508C28.6703 37.787 29.7202 38.9553 31.0107 38.9553H40.3725C40.6957 38.9553 40.9576 39.2468 40.9576 39.6064C40.9576 39.9661 40.6957 40.2576 40.3725 40.2576Z" fill="#DAC5A7"/>
<path d="M18.1383 40.9087H0.585107C0.262011 40.9087 0 40.6173 0 40.2576C0 39.8979 0.262011 39.6065 0.585107 39.6065H18.1383C18.4614 39.6065 18.7234 39.8979 18.7234 40.2576C18.7234 40.6173 18.4614 40.9087 18.1383 40.9087Z" fill="#DAC5A7"/>
<path d="M18.1383 37.0021H0.585107C0.262011 37.0021 0 36.7106 0 36.3509C0 35.9913 0.262011 35.6998 0.585107 35.6998H18.1383C18.4614 35.6998 18.7234 35.9913 18.7234 36.3509C18.7234 36.7106 18.4614 37.0021 18.1383 37.0021Z" fill="#DAC5A7"/>
<path d="M18.1383 33.0953H0.585107C0.262011 33.0953 0 32.8039 0 32.4442C0 32.0847 0.262011 31.7931 0.585107 31.7931H18.1383C18.4614 31.7931 18.7234 32.0847 18.7234 32.4442C18.7234 32.8039 18.4614 33.0953 18.1383 33.0953Z" fill="#DAC5A7"/>
<path d="M33.9363 62.3958H21.064C20.7409 62.3958 20.4789 62.1044 20.4789 61.7447V53.9313C20.4789 53.5716 20.7409 53.2802 21.064 53.2802H33.9363C34.2595 53.2802 34.5214 53.5716 34.5214 53.9313V61.7447C34.5214 62.1044 34.2595 62.3958 33.9363 62.3958ZM21.6491 61.0936H33.3512V54.5824H21.6491V61.0936Z" fill="#DAC5A7"/>
<path d="M31.0106 62.3958H23.9893C23.6662 62.3958 23.4042 62.1044 23.4042 61.7447V53.9313C23.4042 53.5716 23.6662 53.2802 23.9893 53.2802H31.0106C31.3338 53.2802 31.5957 53.5716 31.5957 53.9313V61.7447C31.5957 62.1044 31.3338 62.3958 31.0106 62.3958ZM24.5744 61.0936H30.4255V54.5824H24.5744V61.0936Z" fill="#DAC5A7"/>
<path d="M35.6916 65.0002H19.3085C18.3407 65.0002 17.5532 64.1239 17.5532 63.0469C17.5532 61.9698 18.3407 61.0935 19.3085 61.0935H35.6916C36.6594 61.0935 37.4469 61.9698 37.4469 63.0469C37.4469 64.1239 36.6594 65.0002 35.6916 65.0002ZM19.3085 62.3957C18.9859 62.3957 18.7234 62.6878 18.7234 63.0469C18.7234 63.4059 18.9859 63.698 19.3085 63.698H35.6916C36.0142 63.698 36.2767 63.4059 36.2767 63.0469C36.2767 62.6878 36.0142 62.3957 35.6916 62.3957H19.3085Z" fill="#DAC5A7"/>
</svg>
