<svg width="82" height="82" viewBox="0 0 82 82" fill="none" xmlns="http://www.w3.org/2000/svg">
<path d="M1 40.998C1 56.8275 10.2036 70.5134 23.543 76.9998L4.46232 24.7183C2.24707 29.6947 1 35.1969 1 40.998Z" stroke="#DAC5A7" stroke-width="2" stroke-miterlimit="10"/>
<path d="M68.007 38.982C68.007 34.0335 66.234 30.611 64.7081 27.9456C62.6801 24.6506 60.7796 21.8616 60.7796 18.5626C60.7796 14.8931 63.5686 11.4667 67.501 11.4667C67.6763 11.4667 67.8437 11.4906 68.015 11.4985C60.9031 4.98028 51.4205 1 41.0097 1C27.0329 1 14.7374 8.17167 7.58569 19.0248C8.52199 19.0567 9.41049 19.0766 10.1595 19.0766C14.347 19.0766 20.8214 18.5626 20.8214 18.5626C22.9809 18.4431 23.2319 21.6106 21.0764 21.8616C21.0764 21.8616 18.909 22.1126 16.4985 22.2441L31.0649 65.569L39.8224 39.3206L33.591 22.2441C31.4355 22.1166 29.3916 21.8616 29.3916 21.8616C27.2361 21.7341 27.4911 18.4431 29.6466 18.5626C29.6466 18.5626 36.2485 19.0766 40.1809 19.0766C44.3644 19.0766 50.8468 18.5626 50.8468 18.5626C53.0023 18.4431 53.2533 21.6106 51.0978 21.8616C51.0978 21.8616 48.9264 22.1126 46.5239 22.2441L60.9788 65.2422L64.967 51.9109C66.6922 46.3768 68.007 42.4005 68.007 38.982Z" stroke="#DAC5A7" stroke-width="2" stroke-miterlimit="10"/>
<path d="M41.7032 44.4962L29.7026 79.3704C33.2845 80.4262 37.0735 81 41.002 81C45.6556 81 50.126 80.1991 54.2855 78.7329C54.178 78.5656 54.0744 78.3823 53.9987 78.1831L41.7032 44.4962Z" stroke="#DAC5A7" stroke-width="2" stroke-miterlimit="10"/>
<path d="M76.1037 21.806C76.275 23.077 76.3706 24.4476 76.3706 25.9178C76.3706 29.9778 75.6136 34.5397 73.3267 40.2492L61.1069 75.5697C73 68.637 81.0004 55.748 81.0004 40.9942C81.0004 34.0417 79.2274 27.5035 76.1037 21.806Z" stroke="#DAC5A7" stroke-width="2" stroke-miterlimit="10"/>
</svg>
